# Blender v2.80 (sub 75) OBJ File: 'microwave.blend'
# www.blender.org
o micorwave_door
v 0.000000 0.018279 -0.131721
v 0.000000 0.018279 0.131721
v 0.000000 0.341721 -0.131721
v 0.000000 0.341721 0.131721
v 0.000000 0.000000 0.150000
v 0.000000 0.000000 -0.150000
v 0.000000 0.360000 -0.150000
v 0.000000 0.360000 0.150000
v 0.026342 0.000000 0.150000
v 0.026342 0.000000 -0.150000
v 0.026342 0.360000 -0.150000
v 0.026342 0.360000 0.150000
v 0.026342 0.018279 0.131721
v 0.026342 0.018279 -0.131721
v 0.026342 0.341721 -0.131721
v 0.026342 0.341721 0.131721
v 0.007032 0.341721 -0.137406
v 0.007032 0.341721 0.137406
v 0.019310 0.341721 -0.137406
v 0.019310 0.341721 0.137406
v 0.007032 0.014996 -0.137406
v 0.007032 0.014996 0.137406
v 0.019310 0.014996 -0.137406
v 0.019310 0.014996 0.137406
vt 0.000000 0.000000
vt 0.025388 0.000000
vt 0.025388 0.000000
vt 0.500000 0.000000
vt 0.474612 0.000000
vt 0.000000 0.000000
vt 0.474612 0.000000
vt 0.500000 0.000000
vt 0.025388 0.000000
vt 0.000000 0.000000
vt 0.025388 0.000000
vt 0.500000 0.000000
vt 0.474612 0.000000
vt 0.474612 0.000000
vt 0.000000 0.000000
vt 0.500000 0.000000
vt 0.474612 0.000000
vt 0.474612 0.000000
vt 0.474612 0.000000
vt 0.474612 0.000000
vt 0.474612 0.000000
vt 0.474612 0.000000
vt 0.474612 0.000000
vt 0.474612 0.000000
vn -1.0000 0.0000 0.0000
vn 1.0000 0.0000 0.0000
vn 0.0000 -1.0000 0.0000
vn 0.0000 0.0000 1.0000
vn 0.0000 1.0000 0.0000
vn 0.0000 0.0000 -1.0000
s off
f 6/1/1 2/2/1 1/3/1
f 7/4/1 1/3/1 3/5/1
f 5/6/1 4/7/1 2/2/1
f 8/8/1 3/5/1 4/7/1
f 13/9/2 10/10/2 14/11/2
f 14/11/2 11/12/2 15/13/2
f 16/14/2 9/15/2 13/9/2
f 15/13/2 12/16/2 16/14/2
f 6/1/3 9/15/3 5/6/3
f 3/5/3 16/14/3 4/7/3
f 1/3/4 15/13/4 3/5/4
f 8/8/5 11/12/5 7/4/5
f 7/4/6 10/10/6 6/1/6
f 4/7/6 13/9/6 2/2/6
f 2/2/5 14/11/5 1/3/5
f 5/6/4 12/16/4 8/8/4
f 20/17/5 17/18/5 18/19/5
f 21/20/3 24/21/3 22/22/3
f 19/23/6 21/20/6 17/18/6
f 17/18/1 22/22/1 18/19/1
f 18/19/4 24/21/4 20/17/4
f 20/17/2 23/24/2 19/23/2
f 6/1/1 5/6/1 2/2/1
f 7/4/1 6/1/1 1/3/1
f 5/6/1 8/8/1 4/7/1
f 8/8/1 7/4/1 3/5/1
f 13/9/2 9/15/2 10/10/2
f 14/11/2 10/10/2 11/12/2
f 16/14/2 12/16/2 9/15/2
f 15/13/2 11/12/2 12/16/2
f 6/1/3 10/10/3 9/15/3
f 3/5/3 15/13/3 16/14/3
f 1/3/4 14/11/4 15/13/4
f 8/8/5 12/16/5 11/12/5
f 7/4/6 11/12/6 10/10/6
f 4/7/6 16/14/6 13/9/6
f 2/2/5 13/9/5 14/11/5
f 5/6/4 9/15/4 12/16/4
f 20/17/5 19/23/5 17/18/5
f 21/20/3 23/24/3 24/21/3
f 19/23/6 23/24/6 21/20/6
f 17/18/1 21/20/1 22/22/1
f 18/19/4 22/22/4 24/21/4
f 20/17/2 24/21/2 23/24/2
