# Blender v2.80 (sub 75) OBJ File: 'microwave.blend'
# www.blender.org
o microwave_button
v -0.014512 -0.035323 -0.012612
v -0.014512 0.035323 -0.012612
v -0.014512 -0.035323 0.012612
v -0.014512 0.035323 0.012612
v 0.000732 -0.032523 -0.009811
v 0.000732 0.032523 -0.009811
v 0.000732 -0.032523 0.009811
v 0.000732 0.032523 0.009811
v 0.000000 -0.035323 -0.012612
v 0.000000 0.035323 -0.012612
v 0.000000 -0.035323 0.012612
v 0.000000 0.035323 0.012612
vt 0.553761 0.000000
vt 0.553761 0.000000
vt 0.553761 0.000000
vt 0.930681 0.000000
vt 0.569319 0.000000
vt 0.569319 0.000000
vt 0.946239 0.000000
vt 0.946239 0.000000
vt 0.946239 0.000000
vt 0.946239 0.000000
vt 0.553761 0.000000
vt 0.930681 0.000000
vn 0.0000 -1.0000 0.0000
vn 1.0000 0.0000 0.0000
vn 0.0000 0.0000 1.0000
vn 0.0000 1.0000 0.0000
vn 0.0000 0.0000 -1.0000
vn 0.9675 0.0000 -0.2528
vn 0.9675 0.0000 0.2528
vn 0.9675 0.2528 0.0000
vn 0.9675 -0.2528 0.0000
s off
f 1/1/1 11/2/1 3/3/1
f 6/4/2 7/5/2 5/6/2
f 3/3/3 12/7/3 4/8/3
f 4/8/4 10/9/4 2/10/4
f 2/10/5 9/11/5 1/1/5
f 5/6/6 10/9/6 6/4/6
f 8/12/7 11/2/7 7/5/7
f 6/4/8 12/7/8 8/12/8
f 7/5/9 9/11/9 5/6/9
f 1/1/1 9/11/1 11/2/1
f 6/4/2 8/12/2 7/5/2
f 3/3/3 11/2/3 12/7/3
f 4/8/4 12/7/4 10/9/4
f 2/10/5 10/9/5 9/11/5
f 5/6/6 9/11/6 10/9/6
f 8/12/7 12/7/7 11/2/7
f 6/4/8 10/9/8 12/7/8
f 7/5/9 11/2/9 9/11/9
