# Blender v2.80 (sub 75) OBJ File: 'microwave.blend'
# www.blender.org
o microwave_body
v 0.150000 -0.206721 -0.131721
v 0.150000 0.225000 -0.150000
v -0.150000 -0.225000 -0.150000
v -0.150000 0.225000 -0.150000
v 0.150000 -0.206721 0.131721
v 0.150000 0.225000 0.150000
v -0.150000 -0.225000 0.150000
v -0.150000 0.225000 0.150000
v 0.150000 0.116721 -0.131721
v -0.150000 0.135000 -0.150000
v 0.150000 0.116721 0.131721
v -0.150000 0.135000 0.150000
v 0.150000 -0.225000 0.150000
v 0.150000 -0.225000 -0.150000
v 0.150000 0.135000 -0.150000
v 0.150000 0.135000 0.150000
v -0.133285 -0.206721 0.131721
v -0.133285 -0.206721 -0.131721
v -0.133285 0.116721 -0.131721
v -0.133285 0.116721 0.131721
v 0.176875 0.143789 -0.135665
v 0.176875 0.216211 -0.135665
v 0.176875 0.143789 -0.108666
v 0.176875 0.216211 -0.108666
v 0.176875 0.135000 -0.150000
v 0.176875 0.225000 -0.150000
v 0.176875 0.135000 0.150000
v 0.176875 0.225000 0.150000
v 0.149821 0.144677 -0.134777
v 0.149821 0.215323 -0.134777
v 0.149821 0.144677 -0.109554
v 0.149821 0.215323 -0.109554
v 0.149821 0.143789 -0.135665
v 0.149821 0.216211 -0.135665
v 0.149821 0.143789 -0.108666
v 0.149821 0.216211 -0.108666
v -0.100000 0.170000 -0.150000
v -0.130000 0.170000 -0.150000
v -0.125981 0.155000 -0.150000
v -0.115000 0.144019 -0.150000
v -0.100000 0.140000 -0.150000
v -0.085000 0.144019 -0.150000
v -0.074019 0.155000 -0.150000
v -0.070000 0.170000 -0.150000
v -0.074019 0.185000 -0.150000
v -0.085000 0.195981 -0.150000
v -0.100000 0.200000 -0.150000
v -0.115000 0.195981 -0.150000
v -0.125981 0.185000 -0.150000
v -0.100000 -0.170000 -0.150000
v -0.130000 -0.170000 -0.150000
v -0.125981 -0.185000 -0.150000
v -0.115000 -0.195981 -0.150000
v -0.100000 -0.200000 -0.150000
v -0.085000 -0.195981 -0.150000
v -0.074019 -0.185000 -0.150000
v -0.070000 -0.170000 -0.150000
v -0.074019 -0.155000 -0.150000
v -0.085000 -0.144019 -0.150000
v -0.100000 -0.140000 -0.150000
v -0.115000 -0.144019 -0.150000
v -0.125981 -0.155000 -0.150000
v 0.110000 0.170000 -0.150000
v 0.080000 0.170000 -0.150000
v 0.084019 0.155000 -0.150000
v 0.095000 0.144019 -0.150000
v 0.110000 0.140000 -0.150000
v 0.125000 0.144019 -0.150000
v 0.135981 0.155000 -0.150000
v 0.140000 0.170000 -0.150000
v 0.135981 0.185000 -0.150000
v 0.125000 0.195981 -0.150000
v 0.110000 0.200000 -0.150000
v 0.095000 0.195981 -0.150000
v 0.084019 0.185000 -0.150000
v 0.110000 -0.170000 -0.150000
v 0.080000 -0.170000 -0.150000
v 0.084019 -0.185000 -0.150000
v 0.095000 -0.195981 -0.150000
v 0.110000 -0.200000 -0.150000
v 0.125000 -0.195981 -0.150000
v 0.135981 -0.185000 -0.150000
v 0.140000 -0.170000 -0.150000
v 0.135981 -0.155000 -0.150000
v 0.125000 -0.144019 -0.150000
v 0.110000 -0.140000 -0.150000
v 0.095000 -0.144019 -0.150000
v 0.084019 -0.155000 -0.150000
v -0.125981 0.155000 -0.155000
v -0.130000 0.170000 -0.155000
v -0.100000 0.170000 -0.155000
v -0.115000 0.144019 -0.155000
v -0.100000 0.140000 -0.155000
v -0.085000 0.144019 -0.155000
v -0.074019 0.155000 -0.155000
v -0.070000 0.170000 -0.155000
v -0.074019 0.185000 -0.155000
v -0.085000 0.195981 -0.155000
v -0.100000 0.200000 -0.155000
v -0.115000 0.195981 -0.155000
v -0.125981 0.185000 -0.155000
v -0.125981 -0.185000 -0.155000
v -0.130000 -0.170000 -0.155000
v -0.100000 -0.170000 -0.155000
v -0.115000 -0.195981 -0.155000
v -0.100000 -0.200000 -0.155000
v -0.085000 -0.195981 -0.155000
v -0.074019 -0.185000 -0.155000
v -0.070000 -0.170000 -0.155000
v -0.074019 -0.155000 -0.155000
v -0.085000 -0.144019 -0.155000
v -0.100000 -0.140000 -0.155000
v -0.115000 -0.144019 -0.155000
v -0.125981 -0.155000 -0.155000
v 0.084019 0.155000 -0.155000
v 0.080000 0.170000 -0.155000
v 0.110000 0.170000 -0.155000
v 0.095000 0.144019 -0.155000
v 0.110000 0.140000 -0.155000
v 0.125000 0.144019 -0.155000
v 0.135981 0.155000 -0.155000
v 0.140000 0.170000 -0.155000
v 0.135981 0.185000 -0.155000
v 0.125000 0.195981 -0.155000
v 0.110000 0.200000 -0.155000
v 0.095000 0.195981 -0.155000
v 0.084019 0.185000 -0.155000
v 0.084019 -0.185000 -0.155000
v 0.080000 -0.170000 -0.155000
v 0.110000 -0.170000 -0.155000
v 0.095000 -0.195981 -0.155000
v 0.110000 -0.200000 -0.155000
v 0.125000 -0.195981 -0.155000
v 0.135981 -0.185000 -0.155000
v 0.140000 -0.170000 -0.155000
v 0.135981 -0.155000 -0.155000
v 0.125000 -0.144019 -0.155000
v 0.110000 -0.140000 -0.155000
v 0.095000 -0.144019 -0.155000
v 0.084019 -0.155000 -0.155000
vt 0.500000 1.000000
vt 1.000000 0.000000
vt 0.500000 0.000000
vt 1.000000 0.000000
vt 0.500000 1.000000
vt 0.500000 0.000000
vt 0.000000 1.000000
vt 1.000000 0.000000
vt 1.000000 1.000000
vt 0.000000 0.000000
vt 0.000000 1.000000
vt 0.025388 0.000000
vt 0.474612 0.000000
vt 0.474612 0.000000
vt 1.000000 1.000000
vt 0.000000 0.000000
vt 0.025388 0.000000
vt 0.474612 0.000000
vt 0.474612 0.000000
vt 0.025388 0.000000
vt 0.025388 0.000000
vt 0.548828 0.000000
vt 0.548828 0.000000
vt 0.548828 0.000000
vt 0.500000 0.000000
vt 0.500000 0.000000
vt 1.000000 0.000000
vt 0.951172 0.000000
vt 0.951172 0.000000
vt 0.951172 0.000000
vt 0.951172 0.000000
vt 0.548828 0.000000
vt 0.553761 0.000000
vt 0.946239 0.000000
vt 0.946239 0.000000
vt 0.553761 0.000000
vt 0.500000 0.500000
vt 0.500000 1.000000
vt 0.250000 0.933013
vt 0.066987 0.750000
vt 0.000000 0.500000
vt 0.066987 0.250000
vt 0.250000 0.066987
vt 0.500000 0.000000
vt 0.750000 0.066987
vt 0.933013 0.250000
vt 1.000000 0.500000
vt 0.933013 0.750000
vt 0.750000 0.933013
vt 0.500000 0.500000
vt 0.500000 1.000000
vt 0.250000 0.933013
vt 0.066987 0.750000
vt 0.000000 0.500000
vt 0.066987 0.250000
vt 0.250000 0.066987
vt 0.500000 0.000000
vt 0.750000 0.066987
vt 0.933013 0.250000
vt 1.000000 0.500000
vt 0.933013 0.750000
vt 0.750000 0.933013
vt 0.500000 0.500000
vt 0.500000 1.000000
vt 0.250000 0.933013
vt 0.066987 0.750000
vt 0.000000 0.500000
vt 0.066987 0.250000
vt 0.250000 0.066987
vt 0.500000 0.000000
vt 0.750000 0.066987
vt 0.933013 0.250000
vt 1.000000 0.500000
vt 0.933013 0.750000
vt 0.750000 0.933013
vt 0.500000 0.500000
vt 0.500000 1.000000
vt 0.250000 0.933013
vt 0.066987 0.750000
vt 0.000000 0.500000
vt 0.066987 0.250000
vt 0.250000 0.066987
vt 0.500000 0.000000
vt 0.750000 0.066987
vt 0.933013 0.250000
vt 1.000000 0.500000
vt 0.933013 0.750000
vt 0.750000 0.933013
vt 0.500000 0.500000
vt 0.250000 0.933013
vt 0.500000 1.000000
vt 0.066987 0.750000
vt 0.000000 0.500000
vt 0.066987 0.250000
vt 0.250000 0.066987
vt 0.500000 0.000000
vt 0.750000 0.066987
vt 0.933013 0.250000
vt 1.000000 0.500000
vt 0.933013 0.750000
vt 0.750000 0.933013
vt 0.500000 0.500000
vt 0.250000 0.933013
vt 0.500000 1.000000
vt 0.066987 0.750000
vt 0.000000 0.500000
vt 0.066987 0.250000
vt 0.250000 0.066987
vt 0.500000 0.000000
vt 0.750000 0.066987
vt 0.933013 0.250000
vt 1.000000 0.500000
vt 0.933013 0.750000
vt 0.750000 0.933013
vt 0.500000 0.500000
vt 0.250000 0.933013
vt 0.500000 1.000000
vt 0.066987 0.750000
vt 0.000000 0.500000
vt 0.066987 0.250000
vt 0.250000 0.066987
vt 0.500000 0.000000
vt 0.750000 0.066987
vt 0.933013 0.250000
vt 1.000000 0.500000
vt 0.933013 0.750000
vt 0.750000 0.933013
vt 0.500000 0.500000
vt 0.250000 0.933013
vt 0.500000 1.000000
vt 0.066987 0.750000
vt 0.000000 0.500000
vt 0.066987 0.250000
vt 0.250000 0.066987
vt 0.500000 0.000000
vt 0.750000 0.066987
vt 0.933013 0.250000
vt 1.000000 0.500000
vt 0.933013 0.750000
vt 0.750000 0.933013
vn 0.0000 0.0000 -1.0000
vn 0.0000 0.0000 1.0000
vn -1.0000 0.0000 0.0000
vn 0.0000 1.0000 0.0000
vn 0.0000 -1.0000 0.0000
vn 1.0000 0.0000 0.0000
vn 0.2588 -0.9659 0.0000
vn 0.7071 0.7071 0.0000
vn -0.7071 0.7071 0.0000
vn -0.2588 -0.9659 0.0000
vn 0.9659 0.2588 0.0000
vn -0.2588 0.9659 0.0000
vn -0.9659 -0.2588 0.0000
vn -0.7071 -0.7071 0.0000
vn 0.7071 -0.7071 0.0000
vn 0.2588 0.9659 0.0000
vn -0.9659 0.2588 0.0000
vn 0.9659 -0.2588 0.0000
s off
f 10/1/1 2/2/1 15/3/1
f 6/4/2 12/5/2 16/6/2
f 3/7/3 12/5/3 10/1/3
f 16/6/2 28/8/2 6/4/2
f 4/9/4 6/4/4 2/2/4
f 14/10/5 7/11/5 3/7/5
f 5/12/1 20/13/1 11/14/1
f 10/1/3 8/15/3 4/9/3
f 16/6/2 7/11/2 13/16/2
f 3/7/1 15/3/1 14/10/1
f 5/12/6 14/10/6 1/17/6
f 1/17/6 15/3/6 9/18/6
f 11/14/6 13/16/6 5/12/6
f 9/18/6 16/6/6 11/14/6
f 19/19/6 17/20/6 18/21/6
f 1/17/4 17/20/4 5/12/4
f 11/14/5 19/19/5 9/18/5
f 9/18/2 18/21/2 1/17/2
f 21/22/4 35/23/4 23/24/4
f 15/3/5 27/25/5 16/6/5
f 2/2/1 25/26/1 15/3/1
f 6/4/4 26/27/4 2/2/4
f 21/22/6 26/27/6 22/28/6
f 24/29/6 27/25/6 23/24/6
f 24/29/6 26/27/6 28/8/6
f 23/24/6 25/26/6 21/22/6
f 23/24/1 36/30/1 24/29/1
f 24/29/5 34/31/5 22/28/5
f 22/28/2 33/32/2 21/22/2
f 29/33/6 34/31/6 30/34/6
f 32/35/6 35/23/6 31/36/6
f 30/34/6 36/30/6 32/35/6
f 29/33/6 35/23/6 33/32/6
f 37/37/2 38/38/2 39/39/2
f 37/37/2 39/39/2 40/40/2
f 37/37/2 40/40/2 41/41/2
f 37/37/2 41/41/2 42/42/2
f 37/37/2 42/42/2 43/43/2
f 37/37/2 43/43/2 44/44/2
f 37/37/2 44/44/2 45/45/2
f 37/37/2 45/45/2 46/46/2
f 37/37/2 46/46/2 47/47/2
f 37/37/2 47/47/2 48/48/2
f 37/37/2 48/48/2 49/49/2
f 37/37/2 49/49/2 38/38/2
f 50/50/2 51/51/2 52/52/2
f 50/50/2 52/52/2 53/53/2
f 50/50/2 53/53/2 54/54/2
f 50/50/2 54/54/2 55/55/2
f 50/50/2 55/55/2 56/56/2
f 50/50/2 56/56/2 57/57/2
f 50/50/2 57/57/2 58/58/2
f 50/50/2 58/58/2 59/59/2
f 50/50/2 59/59/2 60/60/2
f 50/50/2 60/60/2 61/61/2
f 50/50/2 61/61/2 62/62/2
f 50/50/2 62/62/2 51/51/2
f 63/63/2 64/64/2 65/65/2
f 63/63/2 65/65/2 66/66/2
f 63/63/2 66/66/2 67/67/2
f 63/63/2 67/67/2 68/68/2
f 63/63/2 68/68/2 69/69/2
f 63/63/2 69/69/2 70/70/2
f 63/63/2 70/70/2 71/71/2
f 63/63/2 71/71/2 72/72/2
f 63/63/2 72/72/2 73/73/2
f 63/63/2 73/73/2 74/74/2
f 63/63/2 74/74/2 75/75/2
f 63/63/2 75/75/2 64/64/2
f 76/76/2 77/77/2 78/78/2
f 76/76/2 78/78/2 79/79/2
f 76/76/2 79/79/2 80/80/2
f 76/76/2 80/80/2 81/81/2
f 76/76/2 81/81/2 82/82/2
f 76/76/2 82/82/2 83/83/2
f 76/76/2 83/83/2 84/84/2
f 76/76/2 84/84/2 85/85/2
f 76/76/2 85/85/2 86/86/2
f 76/76/2 86/86/2 87/87/2
f 76/76/2 87/87/2 88/88/2
f 76/76/2 88/88/2 77/77/2
f 91/89/1 89/90/1 90/91/1
f 91/89/1 92/92/1 89/90/1
f 91/89/1 93/93/1 92/92/1
f 91/89/1 94/94/1 93/93/1
f 91/89/1 95/95/1 94/94/1
f 91/89/1 96/96/1 95/95/1
f 91/89/1 97/97/1 96/96/1
f 91/89/1 98/98/1 97/97/1
f 91/89/1 99/99/1 98/98/1
f 91/89/1 100/100/1 99/99/1
f 91/89/1 101/101/1 100/100/1
f 91/89/1 90/91/1 101/101/1
f 104/102/1 102/103/1 103/104/1
f 104/102/1 105/105/1 102/103/1
f 104/102/1 106/106/1 105/105/1
f 104/102/1 107/107/1 106/106/1
f 104/102/1 108/108/1 107/107/1
f 104/102/1 109/109/1 108/108/1
f 104/102/1 110/110/1 109/109/1
f 104/102/1 111/111/1 110/110/1
f 104/102/1 112/112/1 111/111/1
f 104/102/1 113/113/1 112/112/1
f 104/102/1 114/114/1 113/113/1
f 104/102/1 103/104/1 114/114/1
f 117/115/1 115/116/1 116/117/1
f 117/115/1 118/118/1 115/116/1
f 117/115/1 119/119/1 118/118/1
f 117/115/1 120/120/1 119/119/1
f 117/115/1 121/121/1 120/120/1
f 117/115/1 122/122/1 121/121/1
f 117/115/1 123/123/1 122/122/1
f 117/115/1 124/124/1 123/123/1
f 117/115/1 125/125/1 124/124/1
f 117/115/1 126/126/1 125/125/1
f 117/115/1 127/127/1 126/126/1
f 117/115/1 116/117/1 127/127/1
f 130/128/1 128/129/1 129/130/1
f 130/128/1 131/131/1 128/129/1
f 130/128/1 132/132/1 131/131/1
f 130/128/1 133/133/1 132/132/1
f 130/128/1 134/134/1 133/133/1
f 130/128/1 135/135/1 134/134/1
f 130/128/1 136/136/1 135/135/1
f 130/128/1 137/137/1 136/136/1
f 130/128/1 138/138/1 137/137/1
f 130/128/1 139/139/1 138/138/1
f 130/128/1 140/140/1 139/139/1
f 130/128/1 129/130/1 140/140/1
f 132/132/7 81/81/7 80/80/7
f 110/110/8 59/59/8 58/58/8
f 139/139/9 88/88/9 87/87/9
f 118/118/10 67/67/10 66/66/10
f 96/96/11 45/45/11 44/44/11
f 125/125/12 74/74/12 73/73/12
f 90/91/13 39/39/13 38/38/13
f 102/103/14 53/53/14 52/52/14
f 133/133/15 82/82/15 81/81/15
f 111/111/16 60/60/16 59/59/16
f 140/140/17 77/77/17 88/88/17
f 119/119/7 68/68/7 67/67/7
f 97/97/8 46/46/8 45/45/8
f 126/126/9 75/75/9 74/74/9
f 105/105/10 54/54/10 53/53/10
f 134/134/18 83/83/18 82/82/18
f 112/112/12 61/61/12 60/60/12
f 89/90/14 40/40/14 39/39/14
f 120/120/15 69/69/15 68/68/15
f 98/98/16 47/47/16 46/46/16
f 127/127/17 64/64/17 75/75/17
f 106/106/7 55/55/7 54/54/7
f 135/135/11 84/84/11 83/83/11
f 113/113/9 62/62/9 61/61/9
f 129/130/13 78/78/13 77/77/13
f 92/92/10 41/41/10 40/40/10
f 121/121/18 70/70/18 69/69/18
f 99/99/12 48/48/12 47/47/12
f 107/107/15 56/56/15 55/55/15
f 136/136/8 85/85/8 84/84/8
f 114/114/17 51/51/17 62/62/17
f 93/93/7 42/42/7 41/41/7
f 122/122/11 71/71/11 70/70/11
f 100/100/9 49/49/9 48/48/9
f 116/117/13 65/65/13 64/64/13
f 128/129/14 79/79/14 78/78/14
f 108/108/18 57/57/18 56/56/18
f 137/137/16 86/86/16 85/85/16
f 94/94/15 43/43/15 42/42/15
f 123/123/8 72/72/8 71/71/8
f 101/101/17 38/38/17 49/49/17
f 131/131/10 80/80/10 79/79/10
f 109/109/11 58/58/11 57/57/11
f 138/138/12 87/87/12 86/86/12
f 103/104/13 52/52/13 51/51/13
f 115/116/14 66/66/14 65/65/14
f 95/95/18 44/44/18 43/43/18
f 124/124/16 73/73/16 72/72/16
f 10/1/1 4/9/1 2/2/1
f 6/4/2 8/15/2 12/5/2
f 3/7/3 7/11/3 12/5/3
f 16/6/2 27/25/2 28/8/2
f 4/9/4 8/15/4 6/4/4
f 14/10/5 13/16/5 7/11/5
f 5/12/1 17/20/1 20/13/1
f 10/1/3 12/5/3 8/15/3
f 16/6/2 12/5/2 7/11/2
f 3/7/1 10/1/1 15/3/1
f 5/12/6 13/16/6 14/10/6
f 1/17/6 14/10/6 15/3/6
f 11/14/6 16/6/6 13/16/6
f 9/18/6 15/3/6 16/6/6
f 19/19/6 20/13/6 17/20/6
f 1/17/4 18/21/4 17/20/4
f 11/14/5 20/13/5 19/19/5
f 9/18/2 19/19/2 18/21/2
f 21/22/4 33/32/4 35/23/4
f 15/3/5 25/26/5 27/25/5
f 2/2/1 26/27/1 25/26/1
f 6/4/4 28/8/4 26/27/4
f 21/22/6 25/26/6 26/27/6
f 24/29/6 28/8/6 27/25/6
f 24/29/6 22/28/6 26/27/6
f 23/24/6 27/25/6 25/26/6
f 23/24/1 35/23/1 36/30/1
f 24/29/5 36/30/5 34/31/5
f 22/28/2 34/31/2 33/32/2
f 29/33/6 33/32/6 34/31/6
f 32/35/6 36/30/6 35/23/6
f 30/34/6 34/31/6 36/30/6
f 29/33/6 31/36/6 35/23/6
f 132/132/7 133/133/7 81/81/7
f 110/110/8 111/111/8 59/59/8
f 139/139/9 140/140/9 88/88/9
f 118/118/10 119/119/10 67/67/10
f 96/96/11 97/97/11 45/45/11
f 125/125/12 126/126/12 74/74/12
f 90/91/13 89/90/13 39/39/13
f 102/103/14 105/105/14 53/53/14
f 133/133/15 134/134/15 82/82/15
f 111/111/16 112/112/16 60/60/16
f 140/140/17 129/130/17 77/77/17
f 119/119/7 120/120/7 68/68/7
f 97/97/8 98/98/8 46/46/8
f 126/126/9 127/127/9 75/75/9
f 105/105/10 106/106/10 54/54/10
f 134/134/18 135/135/18 83/83/18
f 112/112/12 113/113/12 61/61/12
f 89/90/14 92/92/14 40/40/14
f 120/120/15 121/121/15 69/69/15
f 98/98/16 99/99/16 47/47/16
f 127/127/17 116/117/17 64/64/17
f 106/106/7 107/107/7 55/55/7
f 135/135/11 136/136/11 84/84/11
f 113/113/9 114/114/9 62/62/9
f 129/130/13 128/129/13 78/78/13
f 92/92/10 93/93/10 41/41/10
f 121/121/18 122/122/18 70/70/18
f 99/99/12 100/100/12 48/48/12
f 107/107/15 108/108/15 56/56/15
f 136/136/8 137/137/8 85/85/8
f 114/114/17 103/104/17 51/51/17
f 93/93/7 94/94/7 42/42/7
f 122/122/11 123/123/11 71/71/11
f 100/100/9 101/101/9 49/49/9
f 116/117/13 115/116/13 65/65/13
f 128/129/14 131/131/14 79/79/14
f 108/108/18 109/109/18 57/57/18
f 137/137/16 138/138/16 86/86/16
f 94/94/15 95/95/15 43/43/15
f 123/123/8 124/124/8 72/72/8
f 101/101/17 90/91/17 38/38/17
f 131/131/10 132/132/10 80/80/10
f 109/109/11 110/110/11 58/58/11
f 138/138/12 139/139/12 87/87/12
f 103/104/13 102/103/13 52/52/13
f 115/116/14 118/118/14 66/66/14
f 95/95/18 96/96/18 44/44/18
f 124/124/16 125/125/16 73/73/16
